# xmcd
#
# Track frame offsets:
#	150
#	13702
#	26270
#	41340
#	55162
#	74345
#	87040
#	98520
#	115252
#	130975
#	140985
#	152335
#
# Disc length: 2169 seconds
#
# Revision: 1
# Processed by: cddbd v1.5.2PL0 Copyright (c) Steve Scherf et al.
# Submitted via: audiograbber 1.83.01
#
DISCID=9208770c
DTITLE=The Larry Stephenson Band - Born To Sing
DYEAR=1994
DGENRE=Bluegrass
TTITLE0=Born Tol Sing
TTITLE1=Only When I'm Leavin'
TTITLE2=When I Left East Virginia
TTITLE3=Fear Of Flying
TTITLE4=Anymore
TTITLE5=I Don't Love You Anymore
TTITLE6=Stokes Run
TTITLE7=On The Wings Of An Angel
TTITLE8=Looking For Ways
TTITLE9=Journey's End
TTITLE10=Are You Wasting My Time
TTITLE11=He Was Waiting At The Alter
EXTD=featuring Larry Stephenson
EXTT0=
EXTT1=
EXTT2=
EXTT3=
EXTT4=
EXTT5=
EXTT6=
EXTT7=
EXTT8=
EXTT9=
EXTT10=
EXTT11=
PLAYORDER=
